# xmcd CD database file
#
# Track frame offsets:
#	150
#	13331
#	22235
#	32499
#	43288
#	61253
#	71830
#	82932
#	95495
#	112960
#	125295
#	135353
#	154303
#	166933
#
# Disc length: 2374 seconds
#
# Revision: 0
# Processed by: cddbd v1.5.1PL0 Copyright (c) Steve Scherf et al.
# Submitted via: CDex 1.51
#
DISCID=b709440e
DTITLE=FORCE "B" - Against the wind
DYEAR=2004
DGENRE=Ska
TTITLE0=Along The Front
TTITLE1=Rai Rai
TTITLE2=Happy Time
TTITLE3=Hands Up
TTITLE4=Rich Island
TTITLE5=To a Feeling
TTITLE6=Begining
TTITLE7=Please Smile Baby
TTITLE8=Time Goes On
TTITLE9=Winding Road
TTITLE10=Ever
TTITLE11=SHANG A LANG (BAY CITY ROLLERS)
TTITLE12=Bonus Track
TTITLE13=CD EXTRA(データ)
EXTD=YEAR: 2004
EXTT0=
EXTT1=
EXTT2=
EXTT3=
EXTT4=
EXTT5=
EXTT6=
EXTT7=
EXTT8=
EXTT9=
EXTT10=
EXTT11=
EXTT12=
EXTT13=
PLAYORDER=
